<?xml version="1.0" encoding="UTF-8"?>
<svg width="512px" height="424px" viewBox="0 0 512 424" version="1.1" xmlns="http://www.w3.org/2000/svg" xmlns:xlink="http://www.w3.org/1999/xlink">
    <!-- Generator: Sketch 63.1 (92452) - https://sketch.com -->
    <title>brick</title>
    <desc>Created with Sketch.</desc>
    <g id="Page-1" stroke="none" stroke-width="1" fill="none" fill-rule="evenodd" opacity="0.197870164">
        <g id="brick" transform="translate(256.000000, 212.000000) scale(-1, 1) translate(-256.000000, -212.000000) " fill="#FFFFFF" fill-rule="nonzero">
            <path d="M500.327,326.718 L429.168,326.718 L429.168,260.24 L500.326,260.24 C506.763,260.24 512.001,255.003 512.001,248.566 L512.001,175.436 C512.001,168.999 506.763,163.762 500.326,163.762 L429.167,163.762 L429.167,93.958 C429.167,87.521 423.93,82.284 417.493,82.284 L346.37,82.284 L346.37,12.481 C346.37,6.044 341.133,0.807 334.696,0.807 L295.625,0.807 C291.482,0.807 288.125,4.165 288.125,8.307 C288.125,12.449 291.482,15.807 295.625,15.807 L331.37,15.807 L331.37,82.285 L256,82.285 L180.708,82.285 L180.708,15.807 L265.375,15.807 C269.518,15.807 272.875,12.449 272.875,8.307 C272.875,4.165 269.518,0.807 265.375,0.807 L173.208,0.807 L173.203,0.807 L11.715,0.807 C5.278,0.807 0.041,6.044 0.041,12.481 L0.041,88.999 C0.015,89.258 0,89.52 0,89.785 L0,171.263 C0,171.528 0.015,171.79 0.042,172.048 L0.042,251.955 C0.015,252.213 0,252.475 0,252.74 L0,279.295 C0,283.437 3.358,286.795 7.5,286.795 C11.642,286.795 15,283.437 15,279.295 L15,260.24 L82.833,260.24 L82.833,326.718 L15,326.718 L15,309.399 C15,305.257 11.642,301.899 7.5,301.899 C3.358,301.899 0,305.257 0,309.399 L0,334.218 C0,334.483 0.015,334.745 0.042,335.003 L0.042,411.521 C0.042,417.958 5.279,423.194 11.716,423.194 L173.204,423.194 L173.209,423.194 L338.834,423.194 L338.871,423.194 L500.327,423.194 C506.764,423.194 512.001,417.957 512.001,411.521 L512.001,338.391 C512.001,331.954 506.764,326.718 500.327,326.718 Z M421.667,178.762 L497,178.762 L497,245.24 L421.667,245.24 L346.37,245.24 L346.37,178.762 L421.667,178.762 Z M263.5,97.285 L338.87,97.285 L414.167,97.285 L414.167,163.763 L338.87,163.763 L338.833,163.763 L263.5,163.763 L263.5,97.285 Z M331.333,178.762 L331.333,245.24 L256.005,245.24 L256,245.24 L180.708,245.24 L180.708,178.762 L256,178.762 L331.333,178.762 Z M248.5,97.285 L248.5,163.763 L173.208,163.763 L173.203,163.763 L97.833,163.763 L97.833,97.285 L248.5,97.285 L248.5,97.285 Z M15.042,15.807 L165.704,15.807 L165.704,82.285 L90.334,82.285 L15.042,82.285 L15.042,15.807 Z M15,97.284 L82.833,97.284 L82.833,163.762 L15,163.762 L15,97.284 Z M15.042,245.24 L15.042,178.762 L90.334,178.762 L165.704,178.762 L165.704,245.24 L90.338,245.24 L90.333,245.24 L15.042,245.24 Z M165.704,408.195 L15.042,408.195 L15.042,341.718 L90.334,341.718 L90.339,341.718 L165.704,341.718 L165.704,408.195 Z M173.208,326.718 L173.203,326.718 L97.838,326.718 L97.838,260.24 L173.203,260.24 L173.208,260.24 L248.5,260.24 L248.5,326.718 L173.208,326.718 Z M331.333,408.195 L180.708,408.195 L180.708,341.718 L256,341.718 L256.005,341.718 L331.333,341.718 L331.333,408.195 L331.333,408.195 Z M338.87,326.718 L338.833,326.718 L263.506,326.718 L263.506,260.24 L338.833,260.24 L338.87,260.24 L414.167,260.24 L414.167,326.718 L338.87,326.718 Z M497,408.195 L346.37,408.195 L346.37,341.718 L421.667,341.718 L497,341.718 L497,408.195 Z" id="Shape"></path>
        </g>
    </g>
</svg>