<?xml version="1.0" encoding="UTF-8"?>
<svg width="50px" height="50px" viewBox="0 0 50 50" version="1.1" xmlns="http://www.w3.org/2000/svg" xmlns:xlink="http://www.w3.org/1999/xlink">
    <!-- Generator: Sketch 63.1 (92452) - https://sketch.com -->
    <title>logo</title>
    <desc>Created with Sketch.</desc>
    <g id="logo" stroke="none" stroke-width="1" fill="none" fill-rule="evenodd">
        <g id="graffiti" fill="#FFFFFF" fill-rule="nonzero">
            <rect id="Rectangle" x="12.3046875" y="0" width="15.9179688" height="9.375"></rect>
            <polygon id="Path" points="14.1000977 26.8338867 14.0638672 30.9822266 16.1568359 30.4213867"></polygon>
            <polygon id="Path" points="21.7773438 12.3046875 21.7773438 15.1927734 32.5557617 12.3046875"></polygon>
            <path d="M42.2983398,31.1276367 L39.1924805,19.5365234 L36.8816406,20.1556641 L39.2291992,28.9168945 L36.0654297,29.7646484 L33.7178711,21.003418 L30.3918945,21.8946289 L29.652832,19.1364258 L38.453418,16.7783203 L37.6981445,13.9597656 L7.70166016,21.9973633 L10.9543945,34.1368164 L11.9358398,23.8836914 L14.4993164,23.1967773 L21.8692383,33.568457 L18.5269531,34.4640625 L17.225,32.3958008 L14.1585938,33.2174805 L14.0814453,35.6552734 L11.5435547,36.3353516 L12.3003906,39.1601562 L12.3046875,39.1601562 L12.3046875,39.1644531 L42.2983398,31.1276367 Z M19.6422852,21.81875 L24.9314453,20.4015625 C25.49375,20.2508789 26.0441406,20.228125 26.5825195,20.3330078 C27.1207031,20.4381836 27.6102539,20.6314453 28.0508789,20.9133789 C28.4916016,21.1952148 28.8738281,21.5509766 29.1974609,21.9798828 C29.5211914,22.4091797 29.7481445,22.8670898 29.8786133,23.3537109 C30.0583008,24.0245117 30.0796875,24.6882812 29.9426758,25.3450195 C29.8057617,26.0019531 29.5269531,26.5839844 29.10625,27.0907227 L32.8368164,30.6297852 L29.2673828,31.5862305 L26.1292969,28.6361328 L24.9449219,28.9535156 L25.8926758,32.4905273 L22.7289063,33.3382812 L19.6422852,21.81875 Z" id="Shape"></path>
            <polygon id="Path" points="18.1731445 40.625 12.3046875 42.1974609 12.3046875 50 28.2226562 50 28.2226562 40.625"></polygon>
            <path d="M26.6661133,24.2145508 C26.5589844,23.8145508 26.3796875,23.5348633 26.128418,23.3761719 C25.8772461,23.2173828 25.6542969,23.1641602 25.4595703,23.2163086 L23.5451172,23.7292969 L24.205957,26.1954102 L26.2015625,25.6606445 C26.3962891,25.6084961 26.5483398,25.4519531 26.6581055,25.1905273 C26.7676758,24.9293945 26.7705078,24.6039063 26.6661133,24.2145508 Z" id="Path"></path>
            <polygon id="Path" points="0 12.3046875 0 18.8476562 8.13720703 18.8476562 18.8476562 15.9777344 18.8476562 12.3046875"></polygon>
            <polygon id="Path" points="29.1068359 37.6953125 37.6953125 37.6953125 37.6953125 35.394043"></polygon>
            <polygon id="Path" points="7.12177734 31.1523438 0 31.1523438 0 37.6953125 8.87490234 37.6953125"></polygon>
            <path d="M50,50 L31.1523438,50 L50,50 Z" id="Rectangle"></path>
            <polygon id="Path" points="4.60966797 21.7773438 0 21.7773438 0 28.2226562 6.33671875 28.2226562"></polygon>
            <polygon id="Path" points="40.2876953 12.3046875 42.040918 18.8476562 50 18.8476562 50 12.3046875"></polygon>
            <polygon id="Path" points="45.3379883 31.1523438 45.8864258 33.1992188 40.625 34.6089844 40.625 37.6953125 50 37.6953125 50 31.1523438"></polygon>
            <polygon id="Path" points="42.8259766 21.7773438 44.5529297 28.2226562 50 28.2226562 50 21.7773438"></polygon>
        </g>
    </g>
</svg>