<?xml version="1.0" encoding="UTF-8"?>
<svg width="486px" height="512px" viewBox="0 0 486 512" version="1.1" xmlns="http://www.w3.org/2000/svg" xmlns:xlink="http://www.w3.org/1999/xlink">
    <!-- Generator: Sketch 63.1 (92452) - https://sketch.com -->
    <title>spray</title>
    <desc>Created with Sketch.</desc>
    <g id="spray" stroke="none" stroke-width="1" fill="none" fill-rule="evenodd">
        <g fill="#FFFFFF" fill-rule="nonzero">
            <path d="M404.210938,287.4375 C404.210938,292.398438 400.1875,296.421875 395.226562,296.421875 C390.265625,296.421875 386.246094,292.398438 386.246094,287.4375 C386.246094,282.476562 390.265625,278.457031 395.226562,278.457031 C400.1875,278.457031 404.210938,282.476562 404.210938,287.4375 Z" id="Path"></path>
            <path d="M485.050781,341.332031 C485.050781,346.292969 481.03125,350.316406 476.070312,350.316406 C471.109375,350.316406 467.085938,346.292969 467.085938,341.332031 C467.085938,336.371094 471.109375,332.351562 476.070312,332.351562 C481.03125,332.351562 485.050781,336.371094 485.050781,341.332031 L485.050781,341.332031 Z" id="Path"></path>
            <path d="M485.050781,305.402344 C485.050781,310.363281 481.03125,314.386719 476.070312,314.386719 C471.109375,314.386719 467.085938,310.363281 467.085938,305.402344 C467.085938,300.441406 471.109375,296.421875 476.070312,296.421875 C481.03125,296.421875 485.050781,300.441406 485.050781,305.402344 L485.050781,305.402344 Z" id="Path"></path>
            <path d="M485.050781,269.472656 C485.050781,274.433594 481.03125,278.457031 476.070312,278.457031 C471.109375,278.457031 467.085938,274.433594 467.085938,269.472656 C467.085938,264.511719 471.109375,260.492188 476.070312,260.492188 C481.03125,260.492188 485.050781,264.511719 485.050781,269.472656 L485.050781,269.472656 Z" id="Path"></path>
            <path d="M485.050781,233.542969 C485.050781,238.503906 481.03125,242.527344 476.070312,242.527344 C471.109375,242.527344 467.085938,238.503906 467.085938,233.542969 C467.085938,228.582031 471.109375,224.5625 476.070312,224.5625 C481.03125,224.5625 485.050781,228.582031 485.050781,233.542969 L485.050781,233.542969 Z" id="Path"></path>
            <path d="M458.105469,323.367188 C458.105469,328.328125 454.082031,332.351562 449.121094,332.351562 C444.160156,332.351562 440.140625,328.328125 440.140625,323.367188 C440.140625,318.40625 444.160156,314.386719 449.121094,314.386719 C454.082031,314.386719 458.105469,318.40625 458.105469,323.367188 L458.105469,323.367188 Z" id="Path"></path>
            <path d="M458.105469,287.4375 C458.105469,292.398438 454.082031,296.421875 449.121094,296.421875 C444.160156,296.421875 440.140625,292.398438 440.140625,287.4375 C440.140625,282.476562 444.160156,278.457031 449.121094,278.457031 C454.082031,278.457031 458.105469,282.476562 458.105469,287.4375 L458.105469,287.4375 Z" id="Path"></path>
            <path d="M458.105469,251.507812 C458.105469,256.46875 454.082031,260.492188 449.121094,260.492188 C444.160156,260.492188 440.140625,256.46875 440.140625,251.507812 C440.140625,246.546875 444.160156,242.527344 449.121094,242.527344 C454.082031,242.527344 458.105469,246.546875 458.105469,251.507812 L458.105469,251.507812 Z" id="Path"></path>
            <path d="M431.15625,305.402344 C431.15625,310.363281 427.136719,314.386719 422.175781,314.386719 C417.214844,314.386719 413.191406,310.363281 413.191406,305.402344 C413.191406,300.441406 417.214844,296.421875 422.175781,296.421875 C427.136719,296.421875 431.15625,300.441406 431.15625,305.402344 L431.15625,305.402344 Z" id="Path"></path>
            <path d="M431.15625,269.472656 C431.15625,274.433594 427.136719,278.457031 422.175781,278.457031 C417.214844,278.457031 413.191406,274.433594 413.191406,269.472656 C413.191406,264.511719 417.214844,260.492188 422.175781,260.492188 C427.136719,260.492188 431.15625,264.511719 431.15625,269.472656 Z" id="Path"></path>
            <path d="M236.148438,410.589844 L281.0625,455.5 C284.601562,458.972656 290.273438,458.972656 293.816406,455.5 C297.320312,451.96875 297.320312,446.277344 293.816406,442.746094 L251.507812,400.527344 L251.507812,323.367188 L233.542969,323.367188 L233.542969,404.210938 C233.5625,406.59375 234.492188,408.875 236.148438,410.589844 L236.148438,410.589844 Z" id="Path"></path>
            <path d="M332.351562,307.371094 L332.351562,296.421875 L368.28125,296.421875 C373.242188,296.421875 377.261719,292.398438 377.261719,287.4375 C377.261719,282.476562 373.242188,278.457031 368.28125,278.457031 L332.351562,278.457031 L332.351562,267.503906 C332.351562,263.382812 329.546875,259.792969 325.546875,258.792969 L314.386719,256 L314.386719,318.878906 L325.546875,316.085938 C329.546875,315.085938 332.351562,311.492188 332.351562,307.371094 L332.351562,307.371094 Z" id="Path"></path>
            <path d="M260.492188,242.527344 C260.492188,252.449219 252.449219,260.492188 242.527344,260.492188 C232.605469,260.492188 224.5625,252.449219 224.5625,242.527344 C224.5625,232.605469 232.605469,224.5625 242.527344,224.5625 C252.449219,224.5625 260.492188,232.605469 260.492188,242.527344 Z" id="Path"></path>
            <path d="M296.421875,314.386719 L296.421875,260.492188 C296.421875,255.53125 292.398438,251.507812 287.4375,251.507812 L277.199219,251.507812 C273.921875,264.113281 264.101562,273.964844 251.507812,277.289062 L251.507812,323.367188 L287.4375,323.367188 C292.398438,323.367188 296.421875,319.347656 296.421875,314.386719 L296.421875,314.386719 Z" id="Path"></path>
            <path d="M207.855469,251.507812 L107.789062,251.507812 L107.789062,297.320312 C107.679688,304.367188 104.765625,311.078125 99.6875,315.96875 C94.613281,320.859375 87.796875,323.519531 80.753906,323.367188 C75.839844,323.453125 71.894531,327.441406 71.859375,332.351562 L71.859375,350.316406 C71.875,355.269531 75.886719,359.285156 80.84375,359.296875 L192.222656,359.296875 C195.199219,359.289062 197.605469,356.882812 197.613281,353.910156 L197.613281,346.722656 C197.652344,333.839844 208.085938,323.40625 220.96875,323.367188 L233.542969,323.367188 L233.542969,277.289062 C220.953125,273.964844 211.132812,264.113281 207.855469,251.507812 Z" id="Path"></path>
            <path d="M62.878906,512 L206.597656,512 C211.558594,512 215.578125,507.976562 215.578125,503.015625 L215.578125,487.191406 C215.578125,483.789062 213.65625,480.679688 210.613281,479.15625 L188.371094,468.035156 C187.125,467.410156 185.75,467.085938 184.355469,467.085938 L70.277344,467.085938 C67.894531,467.085938 65.609375,468.035156 63.925781,469.71875 L56.523438,477.121094 C54.839844,478.808594 53.894531,481.089844 53.894531,483.472656 L53.894531,503.015625 C53.894531,507.976562 57.917969,512 62.878906,512 L62.878906,512 Z" id="Path"></path>
            <path d="M210.726562,226.179688 L193.210938,183.871094 L151.714844,201.027344 L165.1875,233.542969 L207.855469,233.542969 C208.570312,231 209.53125,228.535156 210.726562,226.179688 Z" id="Path"></path>
            <path d="M172.824219,0.71875 C170.648438,-0.238281 168.171875,-0.238281 165.996094,0.71875 L41.5,52.277344 C39.277344,53.152344 37.519531,54.90625 36.648438,57.128906 C35.660156,59.296875 35.660156,61.785156 36.648438,63.957031 C37.519531,66.175781 39.277344,67.933594 41.5,68.804688 C43.667969,69.792969 46.15625,69.792969 48.324219,68.804688 L172.824219,17.246094 C175.042969,16.375 176.800781,14.617188 177.671875,12.394531 C178.570312,10.207031 178.570312,7.757812 177.671875,5.570312 C176.800781,3.347656 175.042969,1.589844 172.824219,0.71875 Z" id="Path"></path>
            <polygon id="Path" points="44.914062 251.507812 89.824219 251.507812 89.824219 278.457031 44.914062 278.457031"></polygon>
            <polygon id="Path" points="26.949219 249.351562 0 233.722656 0 296.421875 26.949219 280.792969"></polygon>
            <path d="M171.386719,37.277344 L117.492188,59.644531 L63.507812,82.011719 L101.320312,173.273438 C106.988281,187 122.703125,193.550781 136.445312,187.914062 L136.535156,187.914062 L194.648438,163.839844 C201.265625,161.105469 206.507812,155.828125 209.203125,149.199219 C211.984375,142.625 211.984375,135.203125 209.203125,128.628906 L171.386719,37.277344 Z M129.707031,171.296875 C128.59375,171.75 127.40625,171.992188 126.203125,172.015625 C122.582031,171.976562 119.332031,169.785156 117.941406,166.445312 L90.453125,100.066406 C89.21875,97.097656 89.660156,93.695312 91.613281,91.140625 C93.566406,88.585938 96.734375,87.265625 99.921875,87.679688 C103.109375,88.097656 105.835938,90.179688 107.070312,93.148438 L134.558594,159.527344 C136.453125,164.117188 134.285156,169.375 129.707031,171.296875 Z" id="Shape"></path>
            <path d="M162.148438,449.121094 C166.542969,449.121094 170.292969,445.941406 171.007812,441.601562 L179.902344,387.707031 C180.332031,385.105469 179.59375,382.445312 177.886719,380.433594 C176.179688,378.421875 173.675781,377.261719 171.039062,377.261719 L108.675781,377.261719 C104.277344,377.261719 100.527344,380.445312 99.8125,384.785156 L90.917969,438.679688 C90.488281,441.28125 91.226562,443.941406 92.933594,445.953125 C94.640625,447.964844 97.144531,449.121094 99.78125,449.121094 L162.148438,449.121094 Z" id="Path"></path>
        </g>
    </g>
</svg>