<?xml version="1.0" encoding="UTF-8"?>
<svg width="359px" height="333px" viewBox="0 0 359 333" version="1.1" xmlns="http://www.w3.org/2000/svg" xmlns:xlink="http://www.w3.org/1999/xlink">
    <!-- Generator: Sketch 63.1 (92452) - https://sketch.com -->
    <title>alert</title>
    <desc>Created with Sketch.</desc>
    <defs>
        <path d="M55.8567232,15.871334 C99.6792879,15.871334 99.7544411,4.5587965 144.285721,0.454343638 C183.387794,-3.14969867 179.202902,15.871334 218.621756,15.871334 C243.488487,15.871334 245.632579,14.9860436 262.294114,36.099326 C278.95565,57.2126083 251.238395,71.3193418 251.238395,100.041294 C251.238395,131.865883 275.053411,137.807729 272.856889,169.452717 C271.270288,192.310664 265.290644,195.893509 265.290644,214.809409 C265.290644,233.725309 257.7001,252.995581 240.074652,252.995581 C190.83606,252.995581 193.03413,236.341598 144.285721,231.666044 C102.159496,227.625637 96.7117913,252.995581 55.8567232,252.995581 C34.7649187,252.995581 20.4269791,254.083266 20.4269791,222.130275 C20.4269791,183.286259 -4.5300582,166.90359 0.727706877,128.833491 C5.31957792,95.5849558 20.4269791,90.9289162 20.4269791,63.8842534 C20.4269791,36.8395906 27.900281,15.871334 55.8567232,15.871334 Z" id="path-1"></path>
        <filter x="-22.0%" y="-23.7%" width="144.0%" height="147.4%" filterUnits="objectBoundingBox" id="filter-2">
            <feOffset dx="0" dy="0" in="SourceAlpha" result="shadowOffsetOuter1"></feOffset>
            <feGaussianBlur stdDeviation="20" in="shadowOffsetOuter1" result="shadowBlurOuter1"></feGaussianBlur>
            <feColorMatrix values="0 0 0 0 0   0 0 0 0 0   0 0 0 0 0  0 0 0 1 0" type="matrix" in="shadowBlurOuter1"></feColorMatrix>
        </filter>
        <linearGradient x1="4.56300166%" y1="36.3646897%" x2="95.4025607%" y2="36.3646897%" id="linearGradient-3">
            <stop stop-color="#E6027E" offset="0%"></stop>
            <stop stop-color="#DB0481" offset="100%"></stop>
        </linearGradient>
    </defs>
    <g id="alert" stroke="none" stroke-width="1" fill="none" fill-rule="evenodd">
        <g id="Group-11" transform="translate(43.000000, 40.000000)">
            <g id="Rectangle">
                <use fill="black" fill-opacity="1" filter="url(#filter-2)" xlink:href="#path-1"></use>
                <use fill="#FFFFFF" fill-rule="evenodd" xlink:href="#path-1"></use>
            </g>
            <g id="about" transform="translate(72.000000, 70.000000)" fill-rule="nonzero">
                <path d="M4.19354839,11.9447854 L4.19354839,100.645161 L86.7162903,100.645161 L110.680323,125.806452 L112.777097,125.806452 L112.777097,100.645161 L125.806452,100.645161 L125.806452,11.9447854 C112.608862,11.4429911 102.274548,11.4429911 94.8035082,11.9447854 C83.5969487,12.6974767 84.906927,15.5198518 72.578532,15.5198518 C60.250137,15.5198518 59.658592,11.0695176 47.9061303,11.9447854 C36.1536686,12.8200531 34.7646695,15.5198518 24.5595175,15.5198518 C17.7560827,15.5198518 10.9674264,14.328163 4.19354839,11.9447854 Z" id="Path" fill="url(#linearGradient-3)"></path>
                <polygon id="Path" fill="#FFFFFF" points="60.8064516 69.1935484 69.1935484 69.1935484 69.1935484 77.5806452 60.8064516 77.5806452"></polygon>
                <polygon id="Path" fill="#FFFFFF" points="60.8064516 27.2580645 69.1935484 27.2580645 69.1935484 60.8064516 60.8064516 60.8064516"></polygon>
                <polygon id="Path" fill="#000000" points="69.1935484 0 69.1935484 8.38709677 121.612903 8.38709677 121.612903 96.4516129 108.583548 96.4516129 108.583548 117.524194 88.5153226 96.4516129 8.38709677 96.4516129 8.38709677 8.38709677 60.8064516 8.38709677 60.8064516 0 0 0 0 104.83871 84.9193548 104.83871 108.883387 130 116.970645 130 116.970645 104.83871 130 104.83871 130 0"></polygon>
            </g>
        </g>
    </g>
</svg>