<?xml version="1.0" encoding="UTF-8"?>
<svg width="1442px" height="309px" viewBox="0 0 1442 309" version="1.1" xmlns="http://www.w3.org/2000/svg" xmlns:xlink="http://www.w3.org/1999/xlink">
    <!-- Generator: Sketch 63.1 (92452) - https://sketch.com -->
    <title>Group 2</title>
    <desc>Created with Sketch.</desc>
    <defs>
        <filter x="-5.6%" y="-30.5%" width="111.2%" height="160.9%" filterUnits="objectBoundingBox" id="filter-1">
            <feOffset dx="0" dy="-23" in="SourceAlpha" result="shadowOffsetOuter1"></feOffset>
            <feGaussianBlur stdDeviation="9.5" in="shadowOffsetOuter1" result="shadowBlurOuter1"></feGaussianBlur>
            <feColorMatrix values="0 0 0 0 0   0 0 0 0 0   0 0 0 0 0  0 0 0 0.5 0" type="matrix" in="shadowBlurOuter1" result="shadowMatrixOuter1"></feColorMatrix>
            <feMerge>
                <feMergeNode in="shadowMatrixOuter1"></feMergeNode>
                <feMergeNode in="SourceGraphic"></feMergeNode>
            </feMerge>
        </filter>
        <path d="M0,44.1631766 C82.7391195,20.9092922 152.672989,9.28235002 209.801609,9.28235002 C295.494539,9.28235002 327.882835,56.3174257 447.953917,44.1631766 C568.024998,32.0089275 595.014531,0.645790883 706.473641,0.645790883 C817.932751,0.645790883 825.962452,57.630398 968.600441,44.1631766 C1111.23843,30.6959552 1091.22404,0.645790883 1206.59633,0.645790883 C1283.51119,0.645790883 1361.31241,15.1515861 1440,44.1631766 C1441.7363,138.935237 1441.65271,188.563795 1439.74923,193.048852 C1436.89401,199.776438 1386.83179,217.7272 1333.06387,207.92801 C1279.29596,198.12882 1317.66425,180.008863 1179.26827,180.008863 C1040.8723,180.008863 1088.27903,226.172272 959.167393,214 C830.055751,201.827728 855.656739,242.478543 745.875789,242.478543 C636.09484,242.478543 570.347829,179.126515 501.347423,214 C445,242.478543 443.417875,265.965741 312,265 C196.221609,264.149188 189.866529,214 119.901625,214 C58.5801815,214 18.6129732,219.435424 0,230.306271 L0,44.1631766 Z" id="path-2"></path>
        <linearGradient x1="45.098613%" y1="-19.6551022%" x2="55.3098904%" y2="50%" id="linearGradient-4">
            <stop stop-color="#DD0380" offset="0%"></stop>
            <stop stop-color="#D00582" offset="100%"></stop>
        </linearGradient>
        <linearGradient x1="36.3160122%" y1="46.780816%" x2="64.8244721%" y2="50%" id="linearGradient-5">
            <stop stop-color="#DD0380" offset="0%"></stop>
            <stop stop-color="#D00582" offset="100%"></stop>
        </linearGradient>
        <path d="M0,44.1631766 C82.7391195,20.9092922 152.672989,9.28235002 209.801609,9.28235002 C295.494539,9.28235002 327.882835,56.3174257 447.953917,44.1631766 C568.024998,32.0089275 595.014531,0.645790883 706.473641,0.645790883 C817.932751,0.645790883 825.962452,57.630398 968.600441,44.1631766 C1111.23843,30.6959552 1091.22404,0.645790883 1206.59633,0.645790883 C1283.51119,0.645790883 1361.31241,15.1515861 1440,44.1631766 C1441.7363,138.935237 1441.65271,188.563795 1439.74923,193.048852 C1436.89401,199.776438 1386.83179,217.7272 1333.06387,207.92801 C1279.29596,198.12882 1317.66425,180.008863 1179.26827,180.008863 C1040.8723,180.008863 1088.27903,226.172272 959.167393,214 C830.055751,201.827728 855.656739,242.478543 745.875789,242.478543 C636.09484,242.478543 570.347829,179.126515 501.347423,214 C445,242.478543 443.417875,265.965741 312,265 C196.221609,264.149188 189.866529,214 119.901625,214 C58.5801815,214 18.6129732,219.435424 0,230.306271 L0,44.1631766 Z" id="path-6"></path>
        <linearGradient x1="22.6083549%" y1="-75.3097665%" x2="77.9278295%" y2="50%" id="linearGradient-8">
            <stop stop-color="#AC0A89" offset="0%"></stop>
            <stop stop-color="#9A0A88" offset="100%"></stop>
        </linearGradient>
        <linearGradient x1="16.779785%" y1="44.208677%" x2="83.8704921%" y2="50%" id="linearGradient-9">
            <stop stop-color="#AC0A89" offset="0%"></stop>
            <stop stop-color="#9A0A88" offset="100%"></stop>
        </linearGradient>
        <path d="M0,44.1631766 C82.7391195,20.9092922 152.672989,9.28235002 209.801609,9.28235002 C295.494539,9.28235002 327.882835,56.3174257 447.953917,44.1631766 C568.024998,32.0089275 595.014531,0.645790883 706.473641,0.645790883 C817.932751,0.645790883 825.962452,57.630398 968.600441,44.1631766 C1111.23843,30.6959552 1091.22404,0.645790883 1206.59633,0.645790883 C1283.51119,0.645790883 1361.31241,15.1515861 1440,44.1631766 C1441.7363,138.935237 1441.65271,188.563795 1439.74923,193.048852 C1436.89401,199.776438 1386.83179,217.7272 1333.06387,207.92801 C1279.29596,198.12882 1317.66425,180.008863 1179.26827,180.008863 C1040.8723,180.008863 1088.27903,226.172272 959.167393,214 C830.055751,201.827728 855.656739,242.478543 745.875789,242.478543 C636.09484,242.478543 570.347829,179.126515 501.347423,214 C445,242.478543 443.417875,265.965741 312,265 C196.221609,264.149188 189.866529,214 119.901625,214 C58.5801815,214 18.6129732,219.435424 0,230.306271 L0,44.1631766 Z" id="path-10"></path>
        <linearGradient x1="45.5477904%" y1="129.838739%" x2="50.266849%" y2="161.52378%" id="linearGradient-12">
            <stop stop-color="#760E8F" offset="0%"></stop>
            <stop stop-color="#530B6A" offset="100%"></stop>
        </linearGradient>
        <linearGradient x1="37.570053%" y1="53.6898315%" x2="50.7450051%" y2="55.1541891%" id="linearGradient-13">
            <stop stop-color="#760E8F" offset="0%"></stop>
            <stop stop-color="#530B6A" offset="100%"></stop>
        </linearGradient>
        <path d="M0,44.1631766 C82.7391195,20.9092922 152.672989,9.28235002 209.801609,9.28235002 C295.494539,9.28235002 327.882835,56.3174257 447.953917,44.1631766 C568.024998,32.0089275 595.014531,0.645790883 706.473641,0.645790883 C817.932751,0.645790883 825.962452,57.630398 968.600441,44.1631766 C1111.23843,30.6959552 1091.22404,0.645790883 1206.59633,0.645790883 C1283.51119,0.645790883 1361.31241,15.1515861 1440,44.1631766 C1441.7363,138.935237 1441.65271,188.563795 1439.74923,193.048852 C1436.89401,199.776438 1386.83179,217.7272 1333.06387,207.92801 C1279.29596,198.12882 1317.66425,180.008863 1179.26827,180.008863 C1040.8723,180.008863 1088.27903,226.172272 959.167393,214 C830.055751,201.827728 855.656739,242.478543 745.875789,242.478543 C636.09484,242.478543 570.347829,179.126515 501.347423,214 C445,242.478543 443.417875,265.965741 312,265 C196.221609,264.149188 189.866529,214 119.901625,214 C58.5801815,214 18.6129732,219.435424 0,230.306271 L0,44.1631766 Z" id="path-14"></path>
        <linearGradient x1="50%" y1="67.9977093%" x2="94.7155152%" y2="67.9977093%" id="linearGradient-16">
            <stop stop-color="#FF007C" offset="0%"></stop>
            <stop stop-color="#FA017D" offset="100%"></stop>
        </linearGradient>
        <linearGradient x1="50%" y1="67.9977093%" x2="94.7155152%" y2="67.9977093%" id="linearGradient-17">
            <stop stop-color="#FF007C" offset="0%"></stop>
            <stop stop-color="#FA017D" offset="100%"></stop>
        </linearGradient>
    </defs>
    <g id="Group-2" stroke="none" stroke-width="1" fill="none" fill-rule="evenodd">
        <g transform="translate(0.000000, 43.000000)">
            <g id="decoBack2">
                <g id="Group">
                    <g id="Rectangle" fill-rule="nonzero">
                        <g id="path-1-link" filter="url(#filter-1)">
                            <g id="path-1">
                                <g id="path-1-link" fill="#000000">
                                    <path d="M0,44.1631766 C82.7391195,20.9092922 152.672989,9.28235002 209.801609,9.28235002 C295.494539,9.28235002 327.882835,56.3174257 447.953917,44.1631766 C568.024998,32.0089275 595.014531,0.645790883 706.473641,0.645790883 C817.932751,0.645790883 825.962452,57.630398 968.600441,44.1631766 C1111.23843,30.6959552 1091.22404,0.645790883 1206.59633,0.645790883 C1283.51119,0.645790883 1361.31241,15.1515861 1440,44.1631766 C1441.7363,138.935237 1441.65271,188.563795 1439.74923,193.048852 C1436.89401,199.776438 1386.83179,217.7272 1333.06387,207.92801 C1279.29596,198.12882 1317.66425,180.008863 1179.26827,180.008863 C1040.8723,180.008863 1088.27903,226.172272 959.167393,214 C830.055751,201.827728 855.656739,242.478543 745.875789,242.478543 C636.09484,242.478543 570.347829,179.126515 501.347423,214 C445,242.478543 443.417875,265.965741 312,265 C196.221609,264.149188 189.866529,214 119.901625,214 C58.5801815,214 18.6129732,219.435424 0,230.306271 L0,44.1631766 Z" id="path-1"></path>
                                </g>
                                <g id="path-1-link" fill="#FFFFFF">
                                    <path d="M0,44.1631766 C82.7391195,20.9092922 152.672989,9.28235002 209.801609,9.28235002 C295.494539,9.28235002 327.882835,56.3174257 447.953917,44.1631766 C568.024998,32.0089275 595.014531,0.645790883 706.473641,0.645790883 C817.932751,0.645790883 825.962452,57.630398 968.600441,44.1631766 C1111.23843,30.6959552 1091.22404,0.645790883 1206.59633,0.645790883 C1283.51119,0.645790883 1361.31241,15.1515861 1440,44.1631766 C1441.7363,138.935237 1441.65271,188.563795 1439.74923,193.048852 C1436.89401,199.776438 1386.83179,217.7272 1333.06387,207.92801 C1279.29596,198.12882 1317.66425,180.008863 1179.26827,180.008863 C1040.8723,180.008863 1088.27903,226.172272 959.167393,214 C830.055751,201.827728 855.656739,242.478543 745.875789,242.478543 C636.09484,242.478543 570.347829,179.126515 501.347423,214 C445,242.478543 443.417875,265.965741 312,265 C196.221609,264.149188 189.866529,214 119.901625,214 C58.5801815,214 18.6129732,219.435424 0,230.306271 L0,44.1631766 Z" id="path-1"></path>
                                </g>
                            </g>
                        </g>
                    </g>
                    <g id="Rectangle-Clipped">
                        <g>
                            <mask id="mask-3" fill="white">
                                <use xlink:href="#path-2"></use>
                            </mask>
                            <g id="path-3"></g>
                            <g id="Rectangle" mask="url(#mask-3)">
                                <g transform="translate(326.000000, -83.000000)" id="path-5-link">
                                    <g>
                                        <g id="Group" fill-rule="nonzero">
                                            <g fill="#000000" id="path-5">
                                                <path d="M47.649288,0 L116.649288,0 C143.88207,26.5829774 157.49846,45.8283738 157.49846,57.7361893 C157.49846,120.5104 129.648652,166.897454 116.649288,192 C103.649925,217.102546 100.531062,262.399433 84.042504,263.002849 C66.093139,263.659724 56.250684,210.323425 47.649288,192 C37.438427,170.247955 0,95.8523187 0,45.8947415 C0,29.3396158 15.883096,14.0413687 47.649288,0 Z"></path>
                                            </g>
                                            <g fill="url(#linearGradient-5)" id="path-5">
                                                <path d="M47.649288,0 L116.649288,0 C143.88207,26.5829774 157.49846,45.8283738 157.49846,57.7361893 C157.49846,120.5104 129.648652,166.897454 116.649288,192 C103.649925,217.102546 100.531062,262.399433 84.042504,263.002849 C66.093139,263.659724 56.250684,210.323425 47.649288,192 C37.438427,170.247955 0,95.8523187 0,45.8947415 C0,29.3396158 15.883096,14.0413687 47.649288,0 Z"></path>
                                            </g>
                                        </g>
                                    </g>
                                </g>
                            </g>
                        </g>
                    </g>
                    <g id="Rectangle-Clipped">
                        <g>
                            <mask id="mask-7" fill="white">
                                <use xlink:href="#path-6"></use>
                            </mask>
                            <g id="path-6"></g>
                            <g id="Rectangle" mask="url(#mask-7)">
                                <g transform="translate(841.000000, -38.000000)" id="path-8-link">
                                    <g>
                                        <g id="Group" fill-rule="nonzero">
                                            <g fill="#000000" id="path-8">
                                                <path d="M47.649288,0 L116.649288,0 C143.88207,17.5866244 157.49846,30.318891 157.49846,38.1968001 C157.49846,79.7266274 129.648652,110.415127 116.649288,127.022335 C103.649925,143.629544 100.531062,173.596817 84.042504,173.996021 C66.093139,174.430594 56.250684,139.144649 47.649288,127.022335 C37.438427,112.631733 0,63.4134656 0,30.3627982 C0,19.4103465 15.883096,9.2894138 47.649288,0 Z"></path>
                                            </g>
                                            <g fill="url(#linearGradient-9)" id="path-8">
                                                <path d="M47.649288,0 L116.649288,0 C143.88207,17.5866244 157.49846,30.318891 157.49846,38.1968001 C157.49846,79.7266274 129.648652,110.415127 116.649288,127.022335 C103.649925,143.629544 100.531062,173.596817 84.042504,173.996021 C66.093139,174.430594 56.250684,139.144649 47.649288,127.022335 C37.438427,112.631733 0,63.4134656 0,30.3627982 C0,19.4103465 15.883096,9.2894138 47.649288,0 Z"></path>
                                            </g>
                                        </g>
                                    </g>
                                </g>
                            </g>
                        </g>
                    </g>
                    <g id="Rectangle-Clipped">
                        <g>
                            <mask id="mask-11" fill="white">
                                <use xlink:href="#path-10"></use>
                            </mask>
                            <g id="path-9"></g>
                            <g id="Rectangle" mask="url(#mask-11)">
                                <g transform="translate(1361.000000, -114.000000)" id="path-11-link">
                                    <g>
                                        <g id="Group" fill-rule="nonzero">
                                            <g fill="#000000" id="path-11">
                                                <path d="M47.64929,0 L116.64929,0 C143.88207,26.5829774 157.49846,45.8283738 157.49846,57.7361893 C157.49846,120.5104 129.64865,166.897454 116.64929,192 C103.64993,217.102546 100.53106,262.399433 84.0425,263.002849 C66.09314,263.659724 56.25068,210.323425 47.64929,192 C37.43843,170.247955 0,95.8523187 0,45.8947415 C0,29.3396158 15.8831,14.0413687 47.64929,0 Z"></path>
                                            </g>
                                            <g fill="url(#linearGradient-13)" id="path-11">
                                                <path d="M47.64929,0 L116.64929,0 C143.88207,26.5829774 157.49846,45.8283738 157.49846,57.7361893 C157.49846,120.5104 129.64865,166.897454 116.64929,192 C103.64993,217.102546 100.53106,262.399433 84.0425,263.002849 C66.09314,263.659724 56.25068,210.323425 47.64929,192 C37.43843,170.247955 0,95.8523187 0,45.8947415 C0,29.3396158 15.8831,14.0413687 47.64929,0 Z"></path>
                                            </g>
                                        </g>
                                    </g>
                                </g>
                            </g>
                        </g>
                    </g>
                    <g id="Rectangle-Clipped">
                        <g>
                            <mask id="mask-15" fill="white">
                                <use xlink:href="#path-14"></use>
                            </mask>
                            <g id="path-12"></g>
                            <g id="Rectangle" mask="url(#mask-15)">
                                <g transform="translate(-79.000000, -131.000000)" id="path-14-link">
                                    <g>
                                        <g id="Group" fill-rule="nonzero">
                                            <g fill="#000000" id="path-14">
                                                <path d="M47.6492884,0 L116.649288,0 C143.88207,26.582977 157.49846,45.8283738 157.49846,57.7361893 C157.49846,120.5104 129.648652,166.897454 116.649288,192 C103.649925,217.102546 100.531062,262.399433 84.0425036,263.002849 C66.093139,263.659724 56.2506842,210.323425 47.6492884,192 C37.438427,170.247955 0,95.8523187 0,45.8947415 C0,29.339616 15.8830961,14.041369 47.6492884,0 Z"></path>
                                            </g>
                                            <g fill="url(#linearGradient-17)" id="path-14">
                                                <path d="M47.6492884,0 L116.649288,0 C143.88207,26.582977 157.49846,45.8283738 157.49846,57.7361893 C157.49846,120.5104 129.648652,166.897454 116.649288,192 C103.649925,217.102546 100.531062,262.399433 84.0425036,263.002849 C66.093139,263.659724 56.2506842,210.323425 47.6492884,192 C37.438427,170.247955 0,95.8523187 0,45.8947415 C0,29.339616 15.8830961,14.041369 47.6492884,0 Z"></path>
                                            </g>
                                        </g>
                                    </g>
                                </g>
                            </g>
                        </g>
                    </g>
                </g>
            </g>
            <polygon id="Rectangle" fill="#FFFFFF" fill-rule="nonzero" points="1 175 367.570752 175 409.621204 186.121461 452.353183 175 1442 175 1442 266 1 266"></polygon>
        </g>
    </g>
</svg>